<?xml version="1.0" standalone="no"?>
<!DOCTYPE svg PUBLIC "-//W3C//DTD SVG 20010904//EN"
 "http://www.w3.org/TR/2001/REC-SVG-20010904/DTD/svg10.dtd">
<svg version="1.0" xmlns="http://www.w3.org/2000/svg"
 width="570.000000pt" height="570.000000pt" viewBox="0 0 570.000000 570.000000"
 preserveAspectRatio="xMidYMid meet">

<g transform="translate(0.000000,570.000000) scale(0.100000,-0.100000)"
fill="#000000" stroke="none">
<path d="M0 2850 l0 -2850 2850 0 2850 0 0 2850 0 2850 -2850 0 -2850 0 0
-2850z m2185 1977 c609 -808 867 -1147 873 -1146 4 0 297 333 652 739 l645
740 394 0 c371 0 393 -1 380 -17 -8 -10 -391 -449 -852 -976 -461 -527 -841
-965 -843 -972 -5 -12 287 -403 1201 -1610 565 -746 815 -1077 815 -1081 0 -2
-357 -4 -792 -4 l-793 0 -619 811 c-341 445 -622 812 -626 814 -3 2 -327 -363
-719 -811 l-712 -814 -390 0 c-214 0 -389 3 -389 8 0 4 414 479 919 1057 l919
1050 -27 35 c-167 214 -1911 2500 -1911 2504 0 3 366 6 813 5 l812 0 250 -332z"/>
<path d="M1256 4673 c15 -21 591 -774 1278 -1673 688 -899 1316 -1721 1396
-1827 l145 -192 218 0 c119 -1 217 1 217 4 0 3 -35 52 -78 108 -43 56 -155
203 -248 327 -223 294 -983 1300 -1592 2105 -267 352 -577 763 -690 913 l-205
272 -235 0 -234 0 28 -37z"/>
</g>
</svg>
